<svg width="29" height="29" viewBox="0 0 29 29" fill="none" xmlns="http://www.w3.org/2000/svg">
<g clip-path="url(#clip0_109_2)">
<path d="M24.4688 5.4375V23.5625C24.4688 24.0432 24.2778 24.5042 23.9379 24.8441C23.598 25.184 23.137 25.375 22.6562 25.375H18.5781C18.0974 25.375 17.6364 25.184 17.2965 24.8441C16.9566 24.5042 16.7656 24.0432 16.7656 23.5625V5.4375C16.7656 4.9568 16.9566 4.49578 17.2965 4.15587C17.6364 3.81596 18.0974 3.625 18.5781 3.625H22.6562C23.137 3.625 23.598 3.81596 23.9379 4.15587C24.2778 4.49578 24.4688 4.9568 24.4688 5.4375ZM10.4219 3.625H6.34375C5.86305 3.625 5.40203 3.81596 5.06212 4.15587C4.72221 4.49578 4.53125 4.9568 4.53125 5.4375V23.5625C4.53125 24.0432 4.72221 24.5042 5.06212 24.8441C5.40203 25.184 5.86305 25.375 6.34375 25.375H10.4219C10.9026 25.375 11.3636 25.184 11.7035 24.8441C12.0434 24.5042 12.2344 24.0432 12.2344 23.5625V5.4375C12.2344 4.9568 12.0434 4.49578 11.7035 4.15587C11.3636 3.81596 10.9026 3.625 10.4219 3.625Z" fill="#E1E1E6"/>
</g>
<defs>
<clipPath id="clip0_109_2">
<rect width="29" height="29" fill="white"/>
</clipPath>
</defs>
</svg>
